<svg fill="none" height="25" viewBox="0 0 25 25" width="25" xmlns="http://www.w3.org/2000/svg"><path d="m23.3022 22.1026c.0547.1608.1095.3216.1644.4825-.0588-.0097-.1174-.0194-.1759-.0291-.644-.1064-1.2765-.211-1.909-.3181l-.0002-.0001-.1283-.0217c-.8007-.1353-1.5967-.2698-2.3901-.4169l-.0004-.0001c-.4036-.0745-.701.0902-.8791.1888l-.0053.003c-.0002 0-.0003.0001-.0005.0002-4.0509 2.2367-8.08174 2.2638-11.94342-.217-2.02214-1.2992-3.42523-2.8972-4.26359-4.7477-.839255-1.8525-1.126078-3.988-.867349-6.3804l.000126-.0012c-.000004.0001.000018-.0001.000085-.0006.000066-.0005.000176-.0012.000349-.0023l.001836-.0092c.001919-.0088.004864-.0203.009636-.0371.0037-.0131.007278-.025.011807-.0402.001848-.0062.003854-.0129.006091-.0205.006944-.0234.01548-.0526.023556-.0839.005709-.0222.009892-.0447.012519-.0674.049314-.42651.114994-.79957.261264-1.13848.01097-.02543.01981-.05172.02643-.0786.30861-1.2535.88157-2.39389 1.65473-3.44134l.00008-.0001c3.72833-5.053542 10.45405-6.229584 15.68485-2.73316l.0001.00006c1.5369 1.02678 2.7263 2.38914 3.6057 4.02751l.0002.0003c.0358.0666.0578.12314.0885.20194.0188.04824.0408.10483.0713.17717.0145.03439.0327.06706.0545.09739.1185.16522.2.35786.2567.58333.0067.0265.0155.05241.0265.07747.6999 1.60791.9085 3.30281.775 5.06431-.118 1.555-.5515 3.023-1.305 4.3925-.089.1618-.1418.3323-.1481.5167-.0061.1788.0327.3399.0814.4803l.0002.0005c.4047 1.1617.8012 2.3254 1.1984 3.4912z" stroke="#1a1a1a" stroke-linejoin="round"/></svg>