<svg fill="none" height="5" viewBox="0 0 19 5" width="19" xmlns="http://www.w3.org/2000/svg"><g fill="#1a1a1a"><path d="m5.03036 2.74511c0 1.21544-.98989 2.20751-2.21734 2.20751s-2.217317-.9855-2.217317-2.20751c0-1.22202.989867-2.207512 2.217317-2.207512s2.21734.985492 2.21734 2.207512z"/><path d="m11.6817 2.74511c0 1.21544-.9898 2.20751-2.21729 2.20751-1.22745 0-2.21734-.9855-2.21734-2.20751 0-1.22202.98989-2.207512 2.21734-2.207512 1.22749 0 2.21729.985492 2.21729 2.207512z"/><path d="m18.3282 2.74511c0 1.21544-.9899 2.20751-2.2173 2.20751-1.2275 0-2.2173-.9855-2.2173-2.20751 0-1.22202.9898-2.207512 2.2173-2.207512 1.2274 0 2.2173.985492 2.2173 2.207512z"/></g></svg>