<svg fill="none" height="56" viewBox="0 0 55 56" width="55" xmlns="http://www.w3.org/2000/svg"><g stroke="#000" stroke-linecap="round" stroke-linejoin="round" stroke-width="2.5"><path d="m1.69922 54.3623h49.81038"/><path d="m4.58984 48.2421c.91459-5.2098 3.62682-9.9341 7.66476-13.3508 4.038-3.4168 9.146-5.3097 14.4354-5.3493 5.2786.0123 10.3813 1.8993 14.3979 5.3243s6.6861 8.1654 7.5323 13.3758"/><path d="m26.6905 29.3723c2.4412 0 4.4201-1.9789 4.4201-4.42s-1.9789-4.4201-4.4201-4.4201c-2.4411 0-4.42 1.979-4.42 4.4201s1.9789 4.42 4.42 4.42z"/><path d="m26.6895 7.10059v6.29001"/><path d="m13.5986 11.3506v6.12"/><path d="m39.7793 11.3506v6.12"/></g></svg>