<svg fill="none" height="42" viewBox="0 0 41 42" width="41" xmlns="http://www.w3.org/2000/svg"><path d="m25.4555 6.1748c0 2.74219-2.1851 4.875-4.9945 4.875-2.7314 0-4.9945-2.13281-4.9945-4.875 0-2.66601 2.2631-4.875 4.9945-4.875 2.8094 0 4.9945 2.20899 4.9945 4.875zm-11.94 25.5938c-.8584 0-1.4827-.7618-1.1706-1.5997l2.4192-7.0839-2.2631 2.8945c-.8584 1.0664-2.4192 1.2949-3.51173.457-1.09255-.8379-1.32666-2.3613-.46824-3.4277l4.60427-5.9414c1.7169-2.209 4.4482-3.5801 7.4137-3.5801 2.8875 0 5.6188 1.3711 7.3357 3.5801l4.6043 5.9414c.8584 1.0664.6243 2.5898-.4683 3.4277-1.0925.8379-2.6533.6094-3.5117-.457l-2.2631-2.8945 2.4192 7.0839c.3121.8379-.3122 1.5997-1.1706 1.5997h-1.3267v6.0937c0 1.3711-1.1706 2.4375-2.4972 2.4375-1.4047 0-2.4973-1.0664-2.4973-2.4375v-6.0937h-1.2486v6.0937c0 1.3711-1.1706 2.4375-2.4972 2.4375-1.4047 0-2.4973-1.0664-2.4973-2.4375v-6.0937z" stroke="#000" stroke-width="2.5"/></svg>