<svg fill="none" height="59" viewBox="0 0 55 59" width="55" xmlns="http://www.w3.org/2000/svg"><path d="m0 .299805h55v58h-55z" fill="#fff"/><g stroke="#000" stroke-linejoin="round" stroke-width="2.5"><path d="m3.4375 29.2998h47.0938v4.7125c0 4.6629-1.7565 9.1347-4.8831 12.4319-3.1266 3.2971-7.3671 5.1494-11.7888 5.1494h-13.75c-4.4217 0-8.6622-1.8523-11.78882-5.1494-3.12658-3.2972-4.88308-7.769-4.88308-12.4319z" stroke-linecap="round"/><path d="m4.98535 8.09277h.68744c3.1453 0 6.16181 1.31763 8.38581 3.66303 2.2241 2.3454 3.4736 5.5263 3.4736 8.8432h-.6875c-3.1453 0-6.1618-1.3176-8.38587-3.663-2.22406-2.3454-3.47348-5.5264-3.47348-8.84323z"/><path d="m43.6691 17.3077c-.3097 1.3058-1.0985 2.4283-2.193 3.1208-1.0945.6924-2.4051.8979-3.6433.5714-1.1391-.2926-2.1345-1.0212-2.7928-2.0443-.774.9018-1.7716 1.5576-2.8802 1.8933s-2.2842.3379-3.3939.0064c-1.1098-.3316-2.1096-.9836-2.8866-1.8825-.777-.899-1.3002-2.0091-1.5107-3.205-.5427.2339-1.1435.2725-1.7091.1098-.3942-.104-.765-.2887-1.0914-.5438-.3265-.2551-.602-.5755-.811-.9429s-.3474-.7746-.4072-1.1984c-.0597-.4238-.0398-.8558.0588-1.2714.1391-.6248.4547-1.1903.905-1.6219.4503-.43166 1.0142-.70912 1.6171-.79574-.0272-.52065.0364-1.04215.1877-1.53856.2705-1.10771.8551-2.10198 1.6758-2.84993.8206-.74794 1.8382-1.21394 2.9167-1.33573 1.0786-.12178 2.1666.10645 3.1188.65421s1.7233 1.38895 2.21 2.41114c1.1453-.48747 2.4077-.57972 3.6059-.26352 1.0493.27607 1.9941.88235 2.7089 1.73828.7147.85593 1.1656 1.92095 1.2926 3.05355 1.1164.4113 2.0461 1.2489 2.6055 2.3476s.708 2.3786.4164 3.5872z" stroke-linecap="round"/><path d="m37.8347 20.9997s-3.7234-1.4587-6.0376 8.3002l-4.8012.0514s1.8555-6.7038-1.5417-11.056" stroke-linecap="round"/></g></svg>