<svg xmlns="http://www.w3.org/2000/svg" fill="none" viewBox="0 0 24 25"><g stroke="#fff" stroke-linecap="round" stroke-linejoin="round" stroke-width="1.5" clip-path="url(#a)"><path d="M1.5 1.3H15s.8 0 .8.7v16.5s0 .8-.8.8H1.5s-.8 0-.8-.8V2s0-.8.8-.8ZM15.8 14.8H.8"/><path d="m18.8 6.7 4 1.4a.8.8 0 0 1 .4 1l-4.7 14.1a.8.8 0 0 1-1 .5l-6.3-2M5.6 6.9a2.6 2.6 0 1 0 5.3 0 2.6 2.6 0 0 0-5.3 0ZM3.8 14.8a4.5 4.5 0 1 1 9 0h-9Z"/></g><defs><clipPath id="a"><path fill="#fff" d="M0 .5h24v24H0z"/></clipPath></defs></svg>