<svg xmlns="http://www.w3.org/2000/svg" fill="none" viewBox="0 0 24 25"><g stroke="#fff" stroke-linecap="round" stroke-linejoin="round" stroke-width="1.5" clip-path="url(#a)"><path d="M9 23.8H3.7a2.3 2.3 0 0 1-2.2-2.3M19.5 9.5V2a.7.7 0 0 0-.8-.8H4.6a3 3 0 0 0-3 3v17.3a2.3 2.3 0 0 1 2.3-2.3H9"/><path d="m17.2 12.2 1.5 3.3h3a.7.7 0 0 1 .6 1.3l-2.6 2.5 1.4 3.4a.8.8 0 0 1-1.1 1l-3.5-2-3.5 2a.8.8 0 0 1-1.1-1l1.4-3.4-2.6-2.5a.7.7 0 0 1 .5-1.3h3l1.6-3.3a.8.8 0 0 1 1.4 0Z"/></g><defs><clipPath id="a"><path fill="#fff" d="M0 .5h24v24H0z"/></clipPath></defs></svg>